<svg width="1280" height="360" viewBox="0 0 1280 360" fill="none" xmlns="http://www.w3.org/2000/svg">
<rect width="1280" height="360" fill="white"/>
<rect x="20" y="25" width="1248" height="315" rx="30" fill="#16166B"/>
<path d="M527.392 80.3672H519.616C519.473 79.361 519.183 78.4673 518.745 77.6861C518.308 76.893 517.745 76.2183 517.059 75.6619C516.372 75.1056 515.579 74.6794 514.679 74.3835C513.792 74.0876 512.827 73.9396 511.785 73.9396C509.903 73.9396 508.264 74.4072 506.867 75.3423C505.47 76.2656 504.387 77.6151 503.618 79.3906C502.848 81.1544 502.464 83.2969 502.464 85.8182C502.464 88.4105 502.848 90.5885 503.618 92.3523C504.399 94.116 505.488 95.4477 506.885 96.3473C508.281 97.2469 509.897 97.6967 511.732 97.6967C512.762 97.6967 513.715 97.5606 514.591 97.2884C515.478 97.0161 516.266 96.6196 516.952 96.0987C517.639 95.5661 518.207 94.9209 518.657 94.1634C519.118 93.4058 519.438 92.5417 519.616 91.571L527.392 91.6065C527.191 93.2756 526.688 94.8854 525.883 96.4361C525.09 97.9749 524.019 99.3539 522.669 100.573C521.332 101.781 519.734 102.739 517.875 103.45C516.029 104.148 513.94 104.497 511.608 104.497C508.364 104.497 505.464 103.763 502.907 102.295C500.362 100.828 498.35 98.7029 496.87 95.9212C495.403 93.1394 494.669 89.7718 494.669 85.8182C494.669 81.8527 495.415 78.4792 496.906 75.6974C498.397 72.9157 500.422 70.7969 502.978 69.3409C505.535 67.8731 508.412 67.1392 511.608 67.1392C513.715 67.1392 515.668 67.4351 517.467 68.027C519.278 68.6188 520.882 69.483 522.279 70.6193C523.676 71.7438 524.812 73.1229 525.688 74.7564C526.576 76.3899 527.144 78.2602 527.392 80.3672ZM545.086 104.533C542.328 104.533 539.943 103.947 537.93 102.775C535.93 101.591 534.385 99.9458 533.296 97.8388C532.207 95.7199 531.663 93.2637 531.663 90.4702C531.663 87.6529 532.207 85.1908 533.296 83.0838C534.385 80.965 535.93 79.3196 537.93 78.1477C539.943 76.964 542.328 76.3722 545.086 76.3722C547.844 76.3722 550.223 76.964 552.224 78.1477C554.236 79.3196 555.787 80.965 556.876 83.0838C557.965 85.1908 558.509 87.6529 558.509 90.4702C558.509 93.2637 557.965 95.7199 556.876 97.8388C555.787 99.9458 554.236 101.591 552.224 102.775C550.223 103.947 547.844 104.533 545.086 104.533ZM545.122 98.6733C546.376 98.6733 547.424 98.3182 548.264 97.608C549.105 96.8859 549.738 95.9034 550.164 94.6605C550.602 93.4176 550.821 92.0031 550.821 90.4169C550.821 88.8307 550.602 87.4162 550.164 86.1733C549.738 84.9304 549.105 83.9479 548.264 83.2259C547.424 82.5038 546.376 82.1428 545.122 82.1428C543.855 82.1428 542.79 82.5038 541.926 83.2259C541.073 83.9479 540.428 84.9304 539.99 86.1733C539.564 87.4162 539.351 88.8307 539.351 90.4169C539.351 92.0031 539.564 93.4176 539.99 94.6605C540.428 95.9034 541.073 96.8859 541.926 97.608C542.79 98.3182 543.855 98.6733 545.122 98.6733ZM570.992 88.233V104H563.428V76.7273H570.636V81.5391H570.956C571.56 79.9529 572.572 78.6982 573.992 77.7749C575.413 76.8397 577.135 76.3722 579.159 76.3722C581.053 76.3722 582.704 76.7865 584.113 77.6151C585.522 78.4437 586.617 79.6274 587.398 81.1662C588.179 82.6932 588.57 84.5161 588.57 86.6349V104H581.006V87.9844C581.018 86.3153 580.591 85.0133 579.727 84.0781C578.863 83.1312 577.674 82.6577 576.158 82.6577C575.14 82.6577 574.241 82.8767 573.46 83.3146C572.69 83.7526 572.086 84.3918 571.649 85.2322C571.222 86.0608 571.003 87.0611 570.992 88.233ZM609.038 76.7273V82.4091H592.614V76.7273H609.038ZM596.342 70.1932H603.906V95.6193C603.906 96.3177 604.013 96.8622 604.226 97.2528C604.439 97.6316 604.735 97.898 605.114 98.0518C605.504 98.2057 605.954 98.2827 606.463 98.2827C606.818 98.2827 607.173 98.2531 607.528 98.1939C607.883 98.1229 608.156 98.0696 608.345 98.0341L609.535 103.663C609.156 103.781 608.623 103.917 607.937 104.071C607.25 104.237 606.416 104.337 605.433 104.373C603.61 104.444 602.012 104.201 600.639 103.645C599.278 103.089 598.218 102.224 597.461 101.053C596.703 99.8807 596.33 98.401 596.342 96.6136V70.1932ZM621.742 104.515C620.002 104.515 618.451 104.213 617.09 103.609C615.728 102.994 614.651 102.088 613.858 100.893C613.077 99.6854 612.686 98.1821 612.686 96.3828C612.686 94.8677 612.965 93.5952 613.521 92.5653C614.077 91.5355 614.835 90.7069 615.794 90.0795C616.752 89.4522 617.841 88.9787 619.061 88.6591C620.292 88.3395 621.582 88.1146 622.931 87.9844C624.518 87.8187 625.796 87.6648 626.767 87.5227C627.737 87.3688 628.442 87.1439 628.88 86.848C629.318 86.5521 629.536 86.1141 629.536 85.5341V85.4276C629.536 84.303 629.181 83.433 628.471 82.8175C627.773 82.2019 626.778 81.8942 625.488 81.8942C624.127 81.8942 623.044 82.196 622.239 82.7997C621.434 83.3916 620.901 84.1373 620.641 85.0369L613.645 84.4688C614 82.8116 614.699 81.3793 615.74 80.1719C616.782 78.9527 618.126 78.0175 619.771 77.3665C621.428 76.7036 623.346 76.3722 625.524 76.3722C627.039 76.3722 628.489 76.5497 629.874 76.9048C631.271 77.2599 632.508 77.8104 633.585 78.5561C634.674 79.3018 635.532 80.2607 636.159 81.4325C636.787 82.5926 637.1 83.9834 637.1 85.6051V104H629.927V100.218H629.714C629.276 101.07 628.69 101.822 627.956 102.473C627.222 103.112 626.34 103.615 625.311 103.982C624.281 104.337 623.091 104.515 621.742 104.515ZM623.908 99.2947C625.021 99.2947 626.003 99.0758 626.855 98.6378C627.708 98.188 628.376 97.5843 628.862 96.8267C629.347 96.0691 629.59 95.2109 629.59 94.2521V91.358C629.353 91.5118 629.027 91.6539 628.613 91.7841C628.211 91.9025 627.755 92.0149 627.246 92.1214C626.737 92.2161 626.228 92.3049 625.719 92.3878C625.21 92.4588 624.748 92.5239 624.334 92.5831C623.446 92.7133 622.671 92.9205 622.008 93.2045C621.345 93.4886 620.83 93.8733 620.463 94.3587C620.096 94.8321 619.913 95.424 619.913 96.1342C619.913 97.1641 620.286 97.9512 621.032 98.4957C621.789 99.0284 622.748 99.2947 623.908 99.2947ZM655.291 104.533C652.498 104.533 650.095 103.941 648.082 102.757C646.082 101.562 644.543 99.9044 643.466 97.7855C642.4 95.6667 641.868 93.2282 641.868 90.4702C641.868 87.6766 642.406 85.2263 643.484 83.1193C644.573 81.0005 646.117 79.3492 648.118 78.1655C650.118 76.9699 652.498 76.3722 655.256 76.3722C657.635 76.3722 659.718 76.8042 661.506 77.6683C663.293 78.5324 664.708 79.7457 665.749 81.3082C666.791 82.8707 667.365 84.7055 667.472 86.8125H660.334C660.132 85.4512 659.6 84.3563 658.736 83.5277C657.883 82.6873 656.765 82.267 655.38 82.267C654.208 82.267 653.184 82.5866 652.308 83.2259C651.444 83.8532 650.769 84.7706 650.284 85.978C649.799 87.1854 649.556 88.6473 649.556 90.3636C649.556 92.1037 649.793 93.5833 650.266 94.8026C650.752 96.0218 651.432 96.951 652.308 97.5902C653.184 98.2294 654.208 98.549 655.38 98.549C656.244 98.549 657.019 98.3714 657.706 98.0163C658.404 97.6612 658.978 97.1463 659.428 96.4716C659.89 95.785 660.192 94.9624 660.334 94.0036H667.472C667.353 96.0869 666.785 97.9216 665.767 99.5078C664.761 101.082 663.37 102.313 661.594 103.201C659.819 104.089 657.718 104.533 655.291 104.533ZM686.821 76.7273V82.4091H670.397V76.7273H686.821ZM674.125 70.1932H681.689V95.6193C681.689 96.3177 681.796 96.8622 682.009 97.2528C682.222 97.6316 682.518 97.898 682.897 98.0518C683.287 98.2057 683.737 98.2827 684.246 98.2827C684.601 98.2827 684.956 98.2531 685.312 98.1939C685.667 98.1229 685.939 98.0696 686.128 98.0341L687.318 103.663C686.939 103.781 686.406 103.917 685.72 104.071C685.033 104.237 684.199 104.337 683.216 104.373C681.393 104.444 679.795 104.201 678.422 103.645C677.061 103.089 676.002 102.224 675.244 101.053C674.486 99.8807 674.114 98.401 674.125 96.6136V70.1932ZM725.923 67.6364H733.611V91.2514C733.611 93.9029 732.978 96.223 731.712 98.2116C730.457 100.2 728.699 101.751 726.438 102.864C724.177 103.964 721.543 104.515 718.537 104.515C715.518 104.515 712.879 103.964 710.618 102.864C708.357 101.751 706.599 100.2 705.344 98.2116C704.09 96.223 703.462 93.9029 703.462 91.2514V67.6364H711.15V90.5945C711.15 91.9794 711.452 93.2105 712.056 94.2876C712.672 95.3648 713.536 96.2112 714.648 96.8267C715.761 97.4422 717.057 97.75 718.537 97.75C720.028 97.75 721.324 97.4422 722.425 96.8267C723.538 96.2112 724.396 95.3648 725 94.2876C725.615 93.2105 725.923 91.9794 725.923 90.5945V67.6364ZM762.487 84.5043L755.562 84.9304C755.444 84.3385 755.189 83.8059 754.798 83.3324C754.408 82.8471 753.893 82.4624 753.254 82.1783C752.626 81.8823 751.875 81.7344 750.999 81.7344C749.827 81.7344 748.838 81.983 748.033 82.4801C747.229 82.9654 746.826 83.6165 746.826 84.4332C746.826 85.0843 747.087 85.6347 747.607 86.0845C748.128 86.5343 749.022 86.8954 750.288 87.1676L755.225 88.1619C757.876 88.7064 759.853 89.5824 761.155 90.7898C762.457 91.9972 763.108 93.5833 763.108 95.5483C763.108 97.3357 762.581 98.9041 761.528 100.254C760.486 101.603 759.054 102.656 757.231 103.414C755.42 104.16 753.331 104.533 750.963 104.533C747.353 104.533 744.476 103.781 742.334 102.278C740.203 100.763 738.954 98.7029 738.587 96.0987L746.027 95.7081C746.252 96.8089 746.796 97.6494 747.661 98.2294C748.525 98.7976 749.631 99.0817 750.981 99.0817C752.307 99.0817 753.372 98.8272 754.177 98.3182C754.994 97.7973 755.408 97.1286 755.42 96.3118C755.408 95.6252 755.118 95.063 754.55 94.625C753.982 94.1752 753.106 93.8319 751.922 93.5952L747.199 92.6541C744.536 92.1214 742.553 91.1982 741.251 89.8842C739.961 88.5703 739.315 86.8954 739.315 84.8594C739.315 83.1075 739.789 81.5982 740.736 80.3317C741.695 79.0651 743.038 78.0885 744.766 77.402C746.506 76.7154 748.542 76.3722 750.874 76.3722C754.319 76.3722 757.03 77.1001 759.006 78.5561C760.995 80.0121 762.155 81.9948 762.487 84.5043Z" fill="white"/>
<path d="M448.381 201V195.46L461.325 183.475C462.426 182.41 463.349 181.451 464.095 180.599C464.852 179.746 465.426 178.912 465.817 178.095C466.208 177.267 466.403 176.373 466.403 175.414C466.403 174.349 466.16 173.431 465.675 172.662C465.19 171.881 464.527 171.283 463.686 170.869C462.846 170.442 461.893 170.229 460.828 170.229C459.715 170.229 458.744 170.454 457.916 170.904C457.087 171.354 456.448 171.999 455.998 172.839C455.548 173.68 455.324 174.68 455.324 175.84H448.026C448.026 173.461 448.565 171.395 449.642 169.643C450.719 167.892 452.228 166.536 454.169 165.577C456.111 164.619 458.348 164.139 460.881 164.139C463.485 164.139 465.752 164.601 467.681 165.524C469.623 166.436 471.132 167.702 472.209 169.324C473.286 170.946 473.825 172.804 473.825 174.899C473.825 176.272 473.553 177.628 473.008 178.965C472.475 180.303 471.523 181.788 470.15 183.422C468.776 185.044 466.841 186.991 464.343 189.263L459.034 194.466V194.714H474.304V201H448.381ZM478.544 194.608V188.553L493.725 164.636H498.945V173.017H495.855L486.285 188.163V188.447H507.858V194.608H478.544ZM495.997 201V192.761L496.139 190.08V164.636H503.348V201H495.997ZM546.872 195.957L525.654 174.775L530.306 170.07L551.542 191.305L546.872 195.957ZM530.306 195.957L525.654 191.305L546.872 170.07L551.542 174.775L530.306 195.957ZM571.548 201L586.622 171.17V170.922H569.062V164.636H594.577V171.011L579.485 201H571.548ZM617.899 201H609.66L622.214 164.636H632.121L644.657 201H636.418L627.309 172.946H627.025L617.899 201ZM617.384 186.707H636.844V192.708H617.384V186.707ZM670.9 173.727L661.365 201H652.842L643.307 173.727H651.297L656.961 193.241H657.246L662.892 173.727H670.9ZM681.815 201.515C680.075 201.515 678.524 201.213 677.163 200.609C675.802 199.994 674.725 199.088 673.931 197.893C673.15 196.685 672.76 195.182 672.76 193.383C672.76 191.868 673.038 190.595 673.594 189.565C674.15 188.536 674.908 187.707 675.867 187.08C676.826 186.452 677.915 185.979 679.134 185.659C680.365 185.339 681.655 185.115 683.005 184.984C684.591 184.819 685.869 184.665 686.84 184.523C687.81 184.369 688.515 184.144 688.953 183.848C689.391 183.552 689.61 183.114 689.61 182.534V182.428C689.61 181.303 689.255 180.433 688.544 179.817C687.846 179.202 686.852 178.894 685.561 178.894C684.2 178.894 683.117 179.196 682.312 179.8C681.507 180.392 680.975 181.137 680.714 182.037L673.718 181.469C674.074 179.812 674.772 178.379 675.814 177.172C676.855 175.953 678.199 175.018 679.844 174.366C681.501 173.704 683.419 173.372 685.597 173.372C687.112 173.372 688.562 173.55 689.947 173.905C691.344 174.26 692.581 174.81 693.658 175.556C694.747 176.302 695.605 177.261 696.233 178.433C696.86 179.593 697.174 180.983 697.174 182.605V201H690V197.218H689.787C689.349 198.07 688.763 198.822 688.029 199.473C687.296 200.112 686.414 200.615 685.384 200.982C684.354 201.337 683.164 201.515 681.815 201.515ZM683.981 196.295C685.094 196.295 686.076 196.076 686.929 195.638C687.781 195.188 688.45 194.584 688.935 193.827C689.42 193.069 689.663 192.211 689.663 191.252V188.358C689.426 188.512 689.101 188.654 688.686 188.784C688.284 188.902 687.828 189.015 687.319 189.121C686.81 189.216 686.301 189.305 685.792 189.388C685.283 189.459 684.822 189.524 684.407 189.583C683.52 189.713 682.744 189.92 682.081 190.205C681.418 190.489 680.904 190.873 680.537 191.359C680.17 191.832 679.986 192.424 679.986 193.134C679.986 194.164 680.359 194.951 681.105 195.496C681.862 196.028 682.821 196.295 683.981 196.295ZM703.042 201V173.727H710.606V201H703.042ZM706.842 170.212C705.717 170.212 704.752 169.839 703.947 169.093C703.154 168.335 702.758 167.43 702.758 166.376C702.758 165.335 703.154 164.441 703.947 163.695C704.752 162.938 705.717 162.559 706.842 162.559C707.966 162.559 708.925 162.938 709.718 163.695C710.523 164.441 710.925 165.335 710.925 166.376C710.925 167.43 710.523 168.335 709.718 169.093C708.925 169.839 707.966 170.212 706.842 170.212ZM724.229 164.636V201H716.665V164.636H724.229ZM738.065 201.515C736.325 201.515 734.774 201.213 733.413 200.609C732.052 199.994 730.975 199.088 730.181 197.893C729.4 196.685 729.01 195.182 729.01 193.383C729.01 191.868 729.288 190.595 729.844 189.565C730.4 188.536 731.158 187.707 732.117 187.08C733.076 186.452 734.165 185.979 735.384 185.659C736.615 185.339 737.905 185.115 739.255 184.984C740.841 184.819 742.119 184.665 743.09 184.523C744.06 184.369 744.765 184.144 745.203 183.848C745.641 183.552 745.86 183.114 745.86 182.534V182.428C745.86 181.303 745.505 180.433 744.794 179.817C744.096 179.202 743.102 178.894 741.811 178.894C740.45 178.894 739.367 179.196 738.562 179.8C737.757 180.392 737.225 181.137 736.964 182.037L729.968 181.469C730.324 179.812 731.022 178.379 732.064 177.172C733.105 175.953 734.449 175.018 736.094 174.366C737.751 173.704 739.669 173.372 741.847 173.372C743.362 173.372 744.812 173.55 746.197 173.905C747.594 174.26 748.831 174.81 749.908 175.556C750.997 176.302 751.855 177.261 752.483 178.433C753.11 179.593 753.424 180.983 753.424 182.605V201H746.25V197.218H746.037C745.599 198.07 745.013 198.822 744.279 199.473C743.546 200.112 742.664 200.615 741.634 200.982C740.604 201.337 739.414 201.515 738.065 201.515ZM740.231 196.295C741.344 196.295 742.326 196.076 743.179 195.638C744.031 195.188 744.7 194.584 745.185 193.827C745.67 193.069 745.913 192.211 745.913 191.252V188.358C745.676 188.512 745.351 188.654 744.936 188.784C744.534 188.902 744.078 189.015 743.569 189.121C743.06 189.216 742.551 189.305 742.042 189.388C741.533 189.459 741.072 189.524 740.657 189.583C739.77 189.713 738.994 189.92 738.331 190.205C737.668 190.489 737.154 190.873 736.787 191.359C736.42 191.832 736.236 192.424 736.236 193.134C736.236 194.164 736.609 194.951 737.355 195.496C738.112 196.028 739.071 196.295 740.231 196.295ZM759.434 201V164.636H766.998V178.308H767.229C767.56 177.574 768.04 176.829 768.667 176.071C769.306 175.302 770.135 174.662 771.153 174.153C772.183 173.633 773.461 173.372 774.988 173.372C776.977 173.372 778.811 173.893 780.492 174.935C782.173 175.964 783.517 177.521 784.523 179.604C785.529 181.676 786.032 184.274 786.032 187.399C786.032 190.441 785.541 193.01 784.558 195.105C783.588 197.188 782.262 198.769 780.581 199.846C778.912 200.911 777.042 201.444 774.97 201.444C773.502 201.444 772.254 201.201 771.224 200.716C770.206 200.231 769.371 199.621 768.72 198.887C768.069 198.141 767.572 197.39 767.229 196.632H766.891V201H759.434ZM766.838 187.364C766.838 188.985 767.063 190.4 767.513 191.607C767.963 192.815 768.614 193.756 769.466 194.43C770.318 195.093 771.354 195.425 772.573 195.425C773.804 195.425 774.846 195.087 775.698 194.413C776.55 193.726 777.196 192.779 777.634 191.572C778.083 190.353 778.308 188.95 778.308 187.364C778.308 185.789 778.089 184.404 777.651 183.209C777.213 182.013 776.568 181.078 775.716 180.403C774.864 179.729 773.816 179.391 772.573 179.391C771.342 179.391 770.3 179.717 769.448 180.368C768.608 181.019 767.963 181.942 767.513 183.138C767.063 184.333 766.838 185.742 766.838 187.364ZM798.643 164.636V201H791.079V164.636H798.643ZM817.131 201.533C814.326 201.533 811.911 200.964 809.887 199.828C807.874 198.68 806.324 197.058 805.235 194.963C804.146 192.856 803.601 190.364 803.601 187.488C803.601 184.683 804.146 182.22 805.235 180.102C806.324 177.983 807.857 176.331 809.833 175.148C811.822 173.964 814.154 173.372 816.829 173.372C818.628 173.372 820.303 173.662 821.854 174.242C823.417 174.81 824.778 175.669 825.938 176.817C827.11 177.965 828.021 179.409 828.672 181.149C829.323 182.877 829.649 184.902 829.649 187.222V189.299H806.62V184.612H822.529C822.529 183.522 822.292 182.558 821.819 181.717C821.345 180.877 820.688 180.22 819.848 179.746C819.019 179.261 818.054 179.018 816.953 179.018C815.805 179.018 814.787 179.285 813.9 179.817C813.024 180.338 812.337 181.043 811.84 181.93C811.343 182.806 811.088 183.783 811.076 184.86V189.317C811.076 190.666 811.325 191.832 811.822 192.815C812.331 193.797 813.047 194.555 813.971 195.087C814.894 195.62 815.989 195.886 817.255 195.886C818.096 195.886 818.865 195.768 819.564 195.531C820.262 195.295 820.86 194.939 821.357 194.466C821.854 193.992 822.233 193.412 822.493 192.726L829.489 193.188C829.134 194.868 828.406 196.336 827.305 197.591C826.216 198.834 824.807 199.804 823.079 200.503C821.363 201.189 819.38 201.533 817.131 201.533Z" fill="white"/>
<path d="M184.645 278V256.182H187.287V265.898H198.921V256.182H201.563V278H198.921V268.241H187.287V278H184.645ZM211.326 278.384C210.29 278.384 209.348 278.188 208.503 277.798C207.658 277.4 206.987 276.828 206.49 276.082C205.993 275.33 205.744 274.42 205.744 273.355C205.744 272.418 205.929 271.658 206.298 271.075C206.667 270.486 207.161 270.024 207.779 269.69C208.397 269.357 209.079 269.108 209.824 268.945C210.577 268.774 211.334 268.639 212.093 268.54C213.088 268.412 213.894 268.316 214.512 268.252C215.137 268.181 215.591 268.064 215.875 267.901C216.167 267.737 216.312 267.453 216.312 267.048V266.963C216.312 265.912 216.025 265.095 215.449 264.513C214.881 263.93 214.018 263.639 212.861 263.639C211.66 263.639 210.719 263.902 210.037 264.428C209.356 264.953 208.876 265.514 208.599 266.111L206.213 265.259C206.639 264.264 207.207 263.49 207.917 262.936C208.635 262.375 209.416 261.984 210.261 261.764C211.113 261.537 211.951 261.423 212.775 261.423C213.301 261.423 213.905 261.487 214.586 261.615C215.275 261.736 215.939 261.988 216.579 262.371C217.225 262.755 217.761 263.334 218.187 264.108C218.613 264.882 218.826 265.919 218.826 267.219V278H216.312V275.784H216.184C216.014 276.139 215.73 276.519 215.332 276.924C214.934 277.329 214.405 277.673 213.745 277.957C213.084 278.241 212.278 278.384 211.326 278.384ZM211.71 276.125C212.704 276.125 213.542 275.93 214.224 275.539C214.913 275.148 215.432 274.644 215.78 274.026C216.135 273.408 216.312 272.759 216.312 272.077V269.776C216.206 269.903 215.971 270.021 215.609 270.127C215.254 270.227 214.842 270.315 214.373 270.393C213.912 270.464 213.461 270.528 213.02 270.585C212.587 270.635 212.236 270.678 211.966 270.713C211.312 270.798 210.701 270.937 210.133 271.129C209.572 271.313 209.118 271.594 208.77 271.97C208.429 272.339 208.258 272.844 208.258 273.483C208.258 274.357 208.581 275.017 209.228 275.464C209.881 275.905 210.709 276.125 211.71 276.125ZM236.21 261.636L230.159 278H227.602L221.551 261.636H224.278L228.795 274.676H228.966L233.483 261.636H236.21ZM245.804 278.341C244.227 278.341 242.867 277.993 241.723 277.297C240.587 276.594 239.71 275.614 239.092 274.357C238.481 273.092 238.176 271.622 238.176 269.946C238.176 268.27 238.481 266.793 239.092 265.514C239.71 264.229 240.569 263.227 241.67 262.51C242.778 261.786 244.071 261.423 245.548 261.423C246.4 261.423 247.242 261.565 248.073 261.849C248.904 262.134 249.66 262.595 250.342 263.234C251.024 263.866 251.567 264.705 251.972 265.749C252.377 266.793 252.579 268.078 252.579 269.605V270.67H239.965V268.497H250.022C250.022 267.574 249.838 266.75 249.468 266.026C249.106 265.301 248.588 264.729 247.913 264.31C247.245 263.891 246.457 263.682 245.548 263.682C244.546 263.682 243.68 263.93 242.948 264.428C242.224 264.918 241.666 265.557 241.276 266.345C240.885 267.134 240.69 267.979 240.69 268.881V270.33C240.69 271.565 240.903 272.613 241.329 273.472C241.762 274.325 242.362 274.974 243.13 275.422C243.897 275.862 244.788 276.082 245.804 276.082C246.464 276.082 247.061 275.99 247.593 275.805C248.133 275.614 248.598 275.33 248.989 274.953C249.38 274.57 249.681 274.094 249.894 273.526L252.323 274.207C252.068 275.031 251.638 275.756 251.034 276.381C250.431 276.999 249.685 277.482 248.797 277.83C247.909 278.17 246.911 278.341 245.804 278.341ZM269.657 278.384C268.62 278.384 267.679 278.188 266.833 277.798C265.988 277.4 265.317 276.828 264.82 276.082C264.323 275.33 264.074 274.42 264.074 273.355C264.074 272.418 264.259 271.658 264.628 271.075C264.997 270.486 265.491 270.024 266.109 269.69C266.727 269.357 267.409 269.108 268.154 268.945C268.907 268.774 269.664 268.639 270.424 268.54C271.418 268.412 272.224 268.316 272.842 268.252C273.467 268.181 273.921 268.064 274.206 267.901C274.497 267.737 274.642 267.453 274.642 267.048V266.963C274.642 265.912 274.355 265.095 273.779 264.513C273.211 263.93 272.348 263.639 271.191 263.639C269.99 263.639 269.049 263.902 268.367 264.428C267.686 264.953 267.206 265.514 266.929 266.111L264.543 265.259C264.969 264.264 265.537 263.49 266.247 262.936C266.965 262.375 267.746 261.984 268.591 261.764C269.443 261.537 270.282 261.423 271.105 261.423C271.631 261.423 272.235 261.487 272.916 261.615C273.605 261.736 274.269 261.988 274.909 262.371C275.555 262.755 276.091 263.334 276.517 264.108C276.943 264.882 277.157 265.919 277.157 267.219V278H274.642V275.784H274.514C274.344 276.139 274.06 276.519 273.662 276.924C273.264 277.329 272.735 277.673 272.075 277.957C271.414 278.241 270.608 278.384 269.657 278.384ZM270.04 276.125C271.034 276.125 271.872 275.93 272.554 275.539C273.243 275.148 273.762 274.644 274.11 274.026C274.465 273.408 274.642 272.759 274.642 272.077V269.776C274.536 269.903 274.301 270.021 273.939 270.127C273.584 270.227 273.172 270.315 272.703 270.393C272.242 270.464 271.791 270.528 271.35 270.585C270.917 270.635 270.566 270.678 270.296 270.713C269.642 270.798 269.032 270.937 268.463 271.129C267.902 271.313 267.448 271.594 267.1 271.97C266.759 272.339 266.588 272.844 266.588 273.483C266.588 274.357 266.911 275.017 267.558 275.464C268.211 275.905 269.039 276.125 270.04 276.125ZM301.348 284.136V275.486H301.135C300.95 275.784 300.687 276.161 300.346 276.615C300.005 277.062 299.519 277.464 298.887 277.819C298.255 278.167 297.413 278.341 296.362 278.341C294.998 278.341 293.794 277.996 292.75 277.308C291.706 276.612 290.89 275.631 290.3 274.367C289.711 273.096 289.416 271.594 289.416 269.861C289.416 268.142 289.711 266.651 290.3 265.386C290.89 264.122 291.71 263.146 292.761 262.457C293.812 261.768 295.027 261.423 296.405 261.423C297.47 261.423 298.312 261.601 298.929 261.956C299.554 262.304 300.03 262.702 300.357 263.149C300.691 263.589 300.95 263.952 301.135 264.236H301.433V261.636H303.862V284.136H301.348ZM296.703 276.082C297.711 276.082 298.564 275.82 299.26 275.294C299.956 274.761 300.485 274.026 300.847 273.089C301.209 272.144 301.39 271.054 301.39 269.818C301.39 268.597 301.213 267.528 300.858 266.612C300.503 265.688 299.977 264.971 299.281 264.46C298.585 263.941 297.726 263.682 296.703 263.682C295.638 263.682 294.75 263.955 294.04 264.502C293.336 265.042 292.807 265.777 292.452 266.707C292.104 267.631 291.93 268.668 291.93 269.818C291.93 270.983 292.108 272.041 292.463 272.993C292.825 273.937 293.358 274.69 294.061 275.251C294.771 275.805 295.652 276.082 296.703 276.082ZM318.777 271.31V261.636H321.291V278H318.777V275.23H318.606C318.223 276.061 317.626 276.768 316.816 277.35C316.007 277.925 314.984 278.213 313.748 278.213C312.726 278.213 311.816 277.989 311.021 277.542C310.226 277.087 309.601 276.406 309.146 275.496C308.691 274.58 308.464 273.426 308.464 272.034V261.636H310.978V271.864C310.978 273.057 311.312 274.009 311.98 274.719C312.655 275.429 313.514 275.784 314.558 275.784C315.183 275.784 315.819 275.624 316.465 275.305C317.118 274.985 317.665 274.495 318.106 273.835C318.553 273.174 318.777 272.332 318.777 271.31ZM332.757 278.341C331.18 278.341 329.82 277.993 328.676 277.297C327.54 276.594 326.663 275.614 326.045 274.357C325.434 273.092 325.129 271.622 325.129 269.946C325.129 268.27 325.434 266.793 326.045 265.514C326.663 264.229 327.522 263.227 328.623 262.51C329.731 261.786 331.024 261.423 332.501 261.423C333.353 261.423 334.195 261.565 335.026 261.849C335.857 262.134 336.613 262.595 337.295 263.234C337.977 263.866 338.52 264.705 338.925 265.749C339.33 266.793 339.532 268.078 339.532 269.605V270.67H326.919V268.497H336.975C336.975 267.574 336.791 266.75 336.421 266.026C336.059 265.301 335.541 264.729 334.866 264.31C334.198 263.891 333.41 263.682 332.501 263.682C331.5 263.682 330.633 263.93 329.902 264.428C329.177 264.918 328.62 265.557 328.229 266.345C327.838 267.134 327.643 267.979 327.643 268.881V270.33C327.643 271.565 327.856 272.613 328.282 273.472C328.715 274.325 329.316 274.974 330.083 275.422C330.85 275.862 331.741 276.082 332.757 276.082C333.417 276.082 334.014 275.99 334.546 275.805C335.086 275.614 335.551 275.33 335.942 274.953C336.333 274.57 336.634 274.094 336.848 273.526L339.277 274.207C339.021 275.031 338.591 275.756 337.987 276.381C337.384 276.999 336.638 277.482 335.75 277.83C334.862 278.17 333.865 278.341 332.757 278.341ZM354.948 265.301L352.689 265.94C352.547 265.564 352.338 265.198 352.061 264.843C351.791 264.481 351.421 264.183 350.953 263.948C350.484 263.714 349.884 263.597 349.152 263.597C348.151 263.597 347.316 263.827 346.649 264.289C345.988 264.744 345.658 265.322 345.658 266.026C345.658 266.651 345.885 267.144 346.34 267.506C346.794 267.869 347.505 268.17 348.47 268.412L350.899 269.009C352.362 269.364 353.453 269.907 354.17 270.638C354.887 271.363 355.246 272.297 355.246 273.44C355.246 274.378 354.976 275.216 354.436 275.955C353.904 276.693 353.158 277.276 352.199 277.702C351.24 278.128 350.125 278.341 348.854 278.341C347.185 278.341 345.804 277.979 344.71 277.254C343.616 276.53 342.924 275.472 342.632 274.08L345.019 273.483C345.246 274.364 345.676 275.024 346.308 275.464C346.947 275.905 347.782 276.125 348.811 276.125C349.983 276.125 350.914 275.876 351.603 275.379C352.299 274.875 352.647 274.271 352.647 273.568C352.647 273 352.448 272.524 352.05 272.141C351.652 271.75 351.041 271.459 350.218 271.267L347.49 270.628C345.992 270.273 344.891 269.722 344.188 268.977C343.492 268.224 343.144 267.283 343.144 266.153C343.144 265.23 343.403 264.413 343.921 263.703C344.447 262.993 345.161 262.435 346.063 262.031C346.972 261.626 348.002 261.423 349.152 261.423C350.772 261.423 352.043 261.778 352.966 262.489C353.897 263.199 354.557 264.136 354.948 265.301ZM366.147 261.636V263.767H357.667V261.636H366.147ZM360.139 257.716H362.653V273.312C362.653 274.023 362.756 274.555 362.962 274.911C363.175 275.259 363.445 275.493 363.771 275.614C364.105 275.727 364.457 275.784 364.826 275.784C365.103 275.784 365.33 275.77 365.508 275.741C365.685 275.706 365.828 275.678 365.934 275.656L366.445 277.915C366.275 277.979 366.037 278.043 365.732 278.107C365.426 278.178 365.039 278.213 364.57 278.213C363.86 278.213 363.164 278.06 362.482 277.755C361.808 277.45 361.247 276.984 360.799 276.359C360.359 275.734 360.139 274.946 360.139 273.994V257.716ZM369.929 278V261.636H372.443V278H369.929ZM371.207 258.909C370.717 258.909 370.295 258.742 369.94 258.408C369.592 258.075 369.418 257.673 369.418 257.205C369.418 256.736 369.592 256.335 369.94 256.001C370.295 255.667 370.717 255.5 371.207 255.5C371.698 255.5 372.117 255.667 372.465 256.001C372.82 256.335 372.997 256.736 372.997 257.205C372.997 257.673 372.82 258.075 372.465 258.408C372.117 258.742 371.698 258.909 371.207 258.909ZM383.696 278.341C382.219 278.341 380.922 277.989 379.807 277.286C378.699 276.583 377.833 275.599 377.208 274.335C376.59 273.071 376.281 271.594 376.281 269.903C376.281 268.199 376.59 266.711 377.208 265.44C377.833 264.168 378.699 263.181 379.807 262.478C380.922 261.775 382.219 261.423 383.696 261.423C385.173 261.423 386.466 261.775 387.574 262.478C388.689 263.181 389.555 264.168 390.173 265.44C390.798 266.711 391.111 268.199 391.111 269.903C391.111 271.594 390.798 273.071 390.173 274.335C389.555 275.599 388.689 276.583 387.574 277.286C386.466 277.989 385.173 278.341 383.696 278.341ZM383.696 276.082C384.818 276.082 385.741 275.795 386.466 275.219C387.19 274.644 387.726 273.888 388.074 272.95C388.422 272.013 388.597 270.997 388.597 269.903C388.597 268.81 388.422 267.79 388.074 266.846C387.726 265.901 387.19 265.138 386.466 264.555C385.741 263.973 384.818 263.682 383.696 263.682C382.574 263.682 381.65 263.973 380.926 264.555C380.202 265.138 379.665 265.901 379.317 266.846C378.969 267.79 378.795 268.81 378.795 269.903C378.795 270.997 378.969 272.013 379.317 272.95C379.665 273.888 380.202 274.644 380.926 275.219C381.65 275.795 382.574 276.082 383.696 276.082ZM397.463 268.156V278H394.949V261.636H397.378V264.193H397.591C397.974 263.362 398.557 262.695 399.338 262.19C400.119 261.679 401.128 261.423 402.363 261.423C403.471 261.423 404.441 261.651 405.272 262.105C406.103 262.553 406.749 263.234 407.211 264.151C407.672 265.06 407.903 266.21 407.903 267.602V278H405.389V267.773C405.389 266.487 405.055 265.486 404.388 264.768C403.72 264.044 402.804 263.682 401.639 263.682C400.836 263.682 400.119 263.856 399.487 264.204C398.862 264.552 398.368 265.06 398.006 265.727C397.644 266.395 397.463 267.205 397.463 268.156ZM425.75 278.384C424.713 278.384 423.772 278.188 422.927 277.798C422.082 277.4 421.411 276.828 420.914 276.082C420.416 275.33 420.168 274.42 420.168 273.355C420.168 272.418 420.353 271.658 420.722 271.075C421.091 270.486 421.585 270.024 422.203 269.69C422.821 269.357 423.502 269.108 424.248 268.945C425.001 268.774 425.757 268.639 426.517 268.54C427.512 268.412 428.318 268.316 428.936 268.252C429.561 268.181 430.015 268.064 430.299 267.901C430.59 267.737 430.736 267.453 430.736 267.048V266.963C430.736 265.912 430.448 265.095 429.873 264.513C429.305 263.93 428.442 263.639 427.284 263.639C426.084 263.639 425.143 263.902 424.461 264.428C423.779 264.953 423.3 265.514 423.023 266.111L420.637 265.259C421.063 264.264 421.631 263.49 422.341 262.936C423.059 262.375 423.84 261.984 424.685 261.764C425.537 261.537 426.375 261.423 427.199 261.423C427.725 261.423 428.328 261.487 429.01 261.615C429.699 261.736 430.363 261.988 431.002 262.371C431.649 262.755 432.185 263.334 432.611 264.108C433.037 264.882 433.25 265.919 433.25 267.219V278H430.736V275.784H430.608C430.438 276.139 430.154 276.519 429.756 276.924C429.358 277.329 428.829 277.673 428.169 277.957C427.508 278.241 426.702 278.384 425.75 278.384ZM426.134 276.125C427.128 276.125 427.966 275.93 428.648 275.539C429.337 275.148 429.855 274.644 430.203 274.026C430.559 273.408 430.736 272.759 430.736 272.077V269.776C430.63 269.903 430.395 270.021 430.033 270.127C429.678 270.227 429.266 270.315 428.797 270.393C428.335 270.464 427.884 270.528 427.444 270.585C427.011 270.635 426.659 270.678 426.389 270.713C425.736 270.798 425.125 270.937 424.557 271.129C423.996 271.313 423.541 271.594 423.193 271.97C422.853 272.339 422.682 272.844 422.682 273.483C422.682 274.357 423.005 275.017 423.652 275.464C424.305 275.905 425.132 276.125 426.134 276.125ZM438.18 278V256.182H440.694V264.236H440.907C441.092 263.952 441.348 263.589 441.674 263.149C442.008 262.702 442.484 262.304 443.102 261.956C443.727 261.601 444.572 261.423 445.638 261.423C447.015 261.423 448.23 261.768 449.281 262.457C450.332 263.146 451.152 264.122 451.742 265.386C452.331 266.651 452.626 268.142 452.626 269.861C452.626 271.594 452.331 273.096 451.742 274.367C451.152 275.631 450.336 276.612 449.292 277.308C448.248 277.996 447.044 278.341 445.68 278.341C444.629 278.341 443.787 278.167 443.155 277.819C442.523 277.464 442.037 277.062 441.696 276.615C441.355 276.161 441.092 275.784 440.907 275.486H440.609V278H438.18ZM440.652 269.818C440.652 271.054 440.833 272.144 441.195 273.089C441.557 274.026 442.086 274.761 442.782 275.294C443.478 275.82 444.331 276.082 445.339 276.082C446.39 276.082 447.267 275.805 447.971 275.251C448.681 274.69 449.214 273.937 449.569 272.993C449.931 272.041 450.112 270.983 450.112 269.818C450.112 268.668 449.934 267.631 449.579 266.707C449.231 265.777 448.702 265.042 447.992 264.502C447.289 263.955 446.405 263.682 445.339 263.682C444.316 263.682 443.457 263.941 442.761 264.46C442.065 264.971 441.54 265.688 441.184 266.612C440.829 267.528 440.652 268.597 440.652 269.818ZM463.12 278.341C461.642 278.341 460.346 277.989 459.231 277.286C458.123 276.583 457.257 275.599 456.632 274.335C456.014 273.071 455.705 271.594 455.705 269.903C455.705 268.199 456.014 266.711 456.632 265.44C457.257 264.168 458.123 263.181 459.231 262.478C460.346 261.775 461.642 261.423 463.12 261.423C464.597 261.423 465.89 261.775 466.998 262.478C468.113 263.181 468.979 264.168 469.597 265.44C470.222 266.711 470.535 268.199 470.535 269.903C470.535 271.594 470.222 273.071 469.597 274.335C468.979 275.599 468.113 276.583 466.998 277.286C465.89 277.989 464.597 278.341 463.12 278.341ZM463.12 276.082C464.242 276.082 465.165 275.795 465.89 275.219C466.614 274.644 467.15 273.888 467.498 272.95C467.846 272.013 468.02 270.997 468.02 269.903C468.02 268.81 467.846 267.79 467.498 266.846C467.15 265.901 466.614 265.138 465.89 264.555C465.165 263.973 464.242 263.682 463.12 263.682C461.998 263.682 461.074 263.973 460.35 264.555C459.625 265.138 459.089 265.901 458.741 266.846C458.393 267.79 458.219 268.81 458.219 269.903C458.219 270.997 458.393 272.013 458.741 272.95C459.089 273.888 459.625 274.644 460.35 275.219C461.074 275.795 461.998 276.082 463.12 276.082ZM484.685 271.31V261.636H487.199V278H484.685V275.23H484.514C484.131 276.061 483.534 276.768 482.725 277.35C481.915 277.925 480.892 278.213 479.657 278.213C478.634 278.213 477.725 277.989 476.929 277.542C476.134 277.087 475.509 276.406 475.054 275.496C474.6 274.58 474.372 273.426 474.372 272.034V261.636H476.887V271.864C476.887 273.057 477.22 274.009 477.888 274.719C478.563 275.429 479.422 275.784 480.466 275.784C481.091 275.784 481.727 275.624 482.373 275.305C483.027 274.985 483.573 274.495 484.014 273.835C484.461 273.174 484.685 272.332 484.685 271.31ZM498.921 261.636V263.767H490.44V261.636H498.921ZM492.912 257.716H495.426V273.312C495.426 274.023 495.529 274.555 495.735 274.911C495.948 275.259 496.218 275.493 496.545 275.614C496.879 275.727 497.23 275.784 497.6 275.784C497.877 275.784 498.104 275.77 498.281 275.741C498.459 275.706 498.601 275.678 498.707 275.656L499.219 277.915C499.048 277.979 498.81 278.043 498.505 278.107C498.2 278.178 497.813 278.213 497.344 278.213C496.634 278.213 495.938 278.06 495.256 277.755C494.581 277.45 494.02 276.984 493.573 276.359C493.132 275.734 492.912 274.946 492.912 273.994V257.716ZM514.123 256.182V278H511.481V256.182H514.123ZM521.594 268.156V278H519.079V261.636H521.508V264.193H521.722C522.105 263.362 522.687 262.695 523.469 262.19C524.25 261.679 525.258 261.423 526.494 261.423C527.602 261.423 528.572 261.651 529.403 262.105C530.234 262.553 530.88 263.234 531.342 264.151C531.803 265.06 532.034 266.21 532.034 267.602V278H529.52V267.773C529.52 266.487 529.186 265.486 528.518 264.768C527.851 264.044 526.935 263.682 525.77 263.682C524.967 263.682 524.25 263.856 523.618 264.204C522.993 264.552 522.499 265.06 522.137 265.727C521.775 266.395 521.594 267.205 521.594 268.156ZM548.219 265.301L545.961 265.94C545.819 265.564 545.609 265.198 545.332 264.843C545.062 264.481 544.693 264.183 544.224 263.948C543.755 263.714 543.155 263.597 542.424 263.597C541.422 263.597 540.588 263.827 539.92 264.289C539.26 264.744 538.929 265.322 538.929 266.026C538.929 266.651 539.157 267.144 539.611 267.506C540.066 267.869 540.776 268.17 541.742 268.412L544.171 269.009C545.634 269.364 546.724 269.907 547.441 270.638C548.159 271.363 548.517 272.297 548.517 273.44C548.517 274.378 548.248 275.216 547.708 275.955C547.175 276.693 546.429 277.276 545.471 277.702C544.512 278.128 543.397 278.341 542.125 278.341C540.456 278.341 539.075 277.979 537.981 277.254C536.888 276.53 536.195 275.472 535.904 274.08L538.29 273.483C538.517 274.364 538.947 275.024 539.579 275.464C540.218 275.905 541.053 276.125 542.083 276.125C543.255 276.125 544.185 275.876 544.874 275.379C545.57 274.875 545.918 274.271 545.918 273.568C545.918 273 545.719 272.524 545.321 272.141C544.924 271.75 544.313 271.459 543.489 271.267L540.762 270.628C539.263 270.273 538.162 269.722 537.459 268.977C536.763 268.224 536.415 267.283 536.415 266.153C536.415 265.23 536.674 264.413 537.193 263.703C537.718 262.993 538.432 262.435 539.334 262.031C540.243 261.626 541.273 261.423 542.424 261.423C544.043 261.423 545.314 261.778 546.238 262.489C547.168 263.199 547.829 264.136 548.219 265.301ZM552.302 278V261.636H554.816V278H552.302ZM553.581 258.909C553.09 258.909 552.668 258.742 552.313 258.408C551.965 258.075 551.791 257.673 551.791 257.205C551.791 256.736 551.965 256.335 552.313 256.001C552.668 255.667 553.09 255.5 553.581 255.5C554.071 255.5 554.49 255.667 554.838 256.001C555.193 256.335 555.37 256.736 555.37 257.205C555.37 257.673 555.193 258.075 554.838 258.408C554.49 258.742 554.071 258.909 553.581 258.909ZM566.026 284.477C564.812 284.477 563.768 284.321 562.894 284.009C562.021 283.703 561.293 283.298 560.71 282.794C560.135 282.297 559.677 281.764 559.336 281.196L561.339 279.79C561.566 280.088 561.854 280.429 562.202 280.812C562.55 281.203 563.026 281.54 563.629 281.825C564.24 282.116 565.039 282.261 566.026 282.261C567.347 282.261 568.438 281.942 569.297 281.303C570.156 280.663 570.586 279.662 570.586 278.298V274.974H570.373C570.188 275.273 569.926 275.642 569.585 276.082C569.251 276.516 568.768 276.903 568.136 277.244C567.511 277.577 566.666 277.744 565.6 277.744C564.279 277.744 563.093 277.432 562.042 276.807C560.998 276.182 560.171 275.273 559.56 274.08C558.956 272.886 558.654 271.437 558.654 269.733C558.654 268.057 558.949 266.597 559.538 265.354C560.128 264.104 560.948 263.138 561.999 262.457C563.051 261.768 564.265 261.423 565.643 261.423C566.708 261.423 567.553 261.601 568.178 261.956C568.81 262.304 569.293 262.702 569.627 263.149C569.968 263.589 570.231 263.952 570.416 264.236H570.671V261.636H573.1V278.469C573.1 279.875 572.781 281.018 572.141 281.899C571.509 282.787 570.657 283.437 569.585 283.849C568.519 284.268 567.333 284.477 566.026 284.477ZM565.941 275.486C566.95 275.486 567.802 275.255 568.498 274.793C569.194 274.332 569.723 273.668 570.085 272.801C570.448 271.935 570.629 270.898 570.629 269.69C570.629 268.511 570.451 267.471 570.096 266.569C569.741 265.667 569.215 264.96 568.519 264.449C567.823 263.937 566.964 263.682 565.941 263.682C564.876 263.682 563.988 263.952 563.278 264.491C562.575 265.031 562.046 265.756 561.69 266.665C561.342 267.574 561.168 268.582 561.168 269.69C561.168 270.827 561.346 271.832 561.701 272.705C562.063 273.572 562.596 274.254 563.299 274.751C564.009 275.241 564.89 275.486 565.941 275.486ZM580.217 268.156V278H577.703V256.182H580.217V264.193H580.43C580.813 263.348 581.389 262.677 582.156 262.18C582.93 261.675 583.96 261.423 585.245 261.423C586.36 261.423 587.337 261.647 588.175 262.094C589.013 262.535 589.663 263.213 590.124 264.129C590.593 265.038 590.828 266.196 590.828 267.602V278H588.313V267.773C588.313 266.473 587.976 265.468 587.301 264.758C586.634 264.04 585.707 263.682 584.521 263.682C583.697 263.682 582.958 263.856 582.305 264.204C581.658 264.552 581.147 265.06 580.771 265.727C580.401 266.395 580.217 267.205 580.217 268.156ZM602.544 261.636V263.767H594.063V261.636H602.544ZM596.535 257.716H599.049V273.312C599.049 274.023 599.152 274.555 599.358 274.911C599.571 275.259 599.841 275.493 600.168 275.614C600.502 275.727 600.853 275.784 601.223 275.784C601.5 275.784 601.727 275.77 601.904 275.741C602.082 275.706 602.224 275.678 602.331 275.656L602.842 277.915C602.671 277.979 602.434 278.043 602.128 278.107C601.823 278.178 601.436 278.213 600.967 278.213C600.257 278.213 599.561 278.06 598.879 277.755C598.204 277.45 597.643 276.984 597.196 276.359C596.755 275.734 596.535 274.946 596.535 273.994V257.716ZM607.018 278V256.182H620.186V258.526H609.66V265.898H619.504V268.241H609.66V275.656H620.356V278H607.018ZM630.786 278.341C629.422 278.341 628.218 277.996 627.174 277.308C626.13 276.612 625.313 275.631 624.724 274.367C624.134 273.096 623.84 271.594 623.84 269.861C623.84 268.142 624.134 266.651 624.724 265.386C625.313 264.122 626.134 263.146 627.185 262.457C628.236 261.768 629.451 261.423 630.828 261.423C631.894 261.423 632.735 261.601 633.353 261.956C633.978 262.304 634.454 262.702 634.781 263.149C635.115 263.589 635.374 263.952 635.559 264.236H635.772V256.182H638.286V278H635.857V275.486H635.559C635.374 275.784 635.111 276.161 634.77 276.615C634.429 277.062 633.943 277.464 633.311 277.819C632.679 278.167 631.837 278.341 630.786 278.341ZM631.127 276.082C632.135 276.082 632.987 275.82 633.684 275.294C634.38 274.761 634.909 274.026 635.271 273.089C635.633 272.144 635.814 271.054 635.814 269.818C635.814 268.597 635.637 267.528 635.282 266.612C634.926 265.688 634.401 264.971 633.705 264.46C633.009 263.941 632.149 263.682 631.127 263.682C630.061 263.682 629.174 263.955 628.463 264.502C627.76 265.042 627.231 265.777 626.876 266.707C626.528 267.631 626.354 268.668 626.354 269.818C626.354 270.983 626.532 272.041 626.887 272.993C627.249 273.937 627.782 274.69 628.485 275.251C629.195 275.805 630.076 276.082 631.127 276.082ZM649.845 284.477C648.63 284.477 647.586 284.321 646.713 284.009C645.839 283.703 645.111 283.298 644.529 282.794C643.953 282.297 643.495 281.764 643.154 281.196L645.157 279.79C645.384 280.088 645.672 280.429 646.02 280.812C646.368 281.203 646.844 281.54 647.448 281.825C648.059 282.116 648.858 282.261 649.845 282.261C651.166 282.261 652.256 281.942 653.115 281.303C653.975 280.663 654.404 279.662 654.404 278.298V274.974H654.191C654.007 275.273 653.744 275.642 653.403 276.082C653.069 276.516 652.586 276.903 651.954 277.244C651.329 277.577 650.484 277.744 649.419 277.744C648.098 277.744 646.911 277.432 645.86 276.807C644.816 276.182 643.989 275.273 643.378 274.08C642.774 272.886 642.473 271.437 642.473 269.733C642.473 268.057 642.767 266.597 643.357 265.354C643.946 264.104 644.767 263.138 645.818 262.457C646.869 261.768 648.083 261.423 649.461 261.423C650.527 261.423 651.372 261.601 651.997 261.956C652.629 262.304 653.112 262.702 653.446 263.149C653.786 263.589 654.049 263.952 654.234 264.236H654.49V261.636H656.919V278.469C656.919 279.875 656.599 281.018 655.96 281.899C655.328 282.787 654.475 283.437 653.403 283.849C652.338 284.268 651.152 284.477 649.845 284.477ZM649.759 275.486C650.768 275.486 651.62 275.255 652.316 274.793C653.012 274.332 653.541 273.668 653.904 272.801C654.266 271.935 654.447 270.898 654.447 269.69C654.447 268.511 654.269 267.471 653.914 266.569C653.559 265.667 653.034 264.96 652.338 264.449C651.642 263.937 650.782 263.682 649.759 263.682C648.694 263.682 647.806 263.952 647.096 264.491C646.393 265.031 645.864 265.756 645.509 266.665C645.161 267.574 644.987 268.582 644.987 269.69C644.987 270.827 645.164 271.832 645.519 272.705C645.882 273.572 646.414 274.254 647.117 274.751C647.828 275.241 648.708 275.486 649.759 275.486ZM668.382 278.341C666.805 278.341 665.445 277.993 664.301 277.297C663.165 276.594 662.288 275.614 661.67 274.357C661.059 273.092 660.754 271.622 660.754 269.946C660.754 268.27 661.059 266.793 661.67 265.514C662.288 264.229 663.147 263.227 664.248 262.51C665.356 261.786 666.649 261.423 668.126 261.423C668.978 261.423 669.82 261.565 670.651 261.849C671.482 262.134 672.238 262.595 672.92 263.234C673.602 263.866 674.145 264.705 674.55 265.749C674.955 266.793 675.157 268.078 675.157 269.605V270.67H662.544V268.497H672.6C672.6 267.574 672.416 266.75 672.046 266.026C671.684 265.301 671.166 264.729 670.491 264.31C669.823 263.891 669.035 263.682 668.126 263.682C667.125 263.682 666.258 263.93 665.527 264.428C664.802 264.918 664.245 265.557 663.854 266.345C663.463 267.134 663.268 267.979 663.268 268.881V270.33C663.268 271.565 663.481 272.613 663.907 273.472C664.34 274.325 664.941 274.974 665.708 275.422C666.475 275.862 667.366 276.082 668.382 276.082C669.042 276.082 669.639 275.99 670.171 275.805C670.711 275.614 671.176 275.33 671.567 274.953C671.958 274.57 672.259 274.094 672.473 273.526L674.902 274.207C674.646 275.031 674.216 275.756 673.612 276.381C673.009 276.999 672.263 277.482 671.375 277.83C670.487 278.17 669.49 278.341 668.382 278.341ZM682.263 271.864V271.736C682.277 270.379 682.419 269.3 682.689 268.497C682.959 267.695 683.343 267.045 683.84 266.548C684.337 266.05 684.934 265.592 685.63 265.173C686.049 264.918 686.425 264.616 686.759 264.268C687.093 263.913 687.355 263.504 687.547 263.043C687.746 262.581 687.845 262.07 687.845 261.509C687.845 260.812 687.682 260.209 687.355 259.697C687.029 259.186 686.592 258.792 686.045 258.515C685.498 258.238 684.891 258.099 684.223 258.099C683.641 258.099 683.08 258.22 682.54 258.462C682 258.703 681.549 259.083 681.187 259.602C680.825 260.12 680.615 260.798 680.559 261.636H677.874C677.931 260.429 678.243 259.396 678.811 258.536C679.387 257.677 680.143 257.02 681.081 256.565C682.025 256.111 683.073 255.884 684.223 255.884C685.473 255.884 686.56 256.132 687.483 256.629C688.414 257.126 689.131 257.808 689.635 258.675C690.147 259.541 690.402 260.528 690.402 261.636C690.402 262.418 690.282 263.124 690.04 263.756C689.806 264.388 689.465 264.953 689.017 265.45C688.577 265.947 688.044 266.388 687.419 266.771C686.794 267.162 686.294 267.574 685.917 268.007C685.541 268.433 685.267 268.941 685.097 269.531C684.926 270.12 684.834 270.855 684.82 271.736V271.864H682.263ZM683.627 278.17C683.101 278.17 682.65 277.982 682.274 277.606C681.897 277.229 681.709 276.778 681.709 276.253C681.709 275.727 681.897 275.276 682.274 274.9C682.65 274.523 683.101 274.335 683.627 274.335C684.152 274.335 684.603 274.523 684.98 274.9C685.356 275.276 685.544 275.727 685.544 276.253C685.544 276.601 685.456 276.92 685.278 277.212C685.108 277.503 684.877 277.737 684.585 277.915C684.301 278.085 683.982 278.17 683.627 278.17ZM706.928 278L700.962 256.182H703.647L708.207 273.952H708.42L713.065 256.182H716.048L720.693 273.952H720.906L725.465 256.182H728.15L722.184 278H719.457L714.641 260.614H714.471L709.656 278H706.928ZM736.438 278.341C734.862 278.341 733.502 277.993 732.358 277.297C731.222 276.594 730.345 275.614 729.727 274.357C729.116 273.092 728.81 271.622 728.81 269.946C728.81 268.27 729.116 266.793 729.727 265.514C730.345 264.229 731.204 263.227 732.305 262.51C733.413 261.786 734.705 261.423 736.183 261.423C737.035 261.423 737.877 261.565 738.707 261.849C739.538 262.134 740.295 262.595 740.977 263.234C741.658 263.866 742.202 264.705 742.607 265.749C743.011 266.793 743.214 268.078 743.214 269.605V270.67H730.6V268.497H740.657C740.657 267.574 740.472 266.75 740.103 266.026C739.741 265.301 739.222 264.729 738.548 264.31C737.88 263.891 737.092 263.682 736.183 263.682C735.181 263.682 734.315 263.93 733.583 264.428C732.859 264.918 732.301 265.557 731.911 266.345C731.52 267.134 731.325 267.979 731.325 268.881V270.33C731.325 271.565 731.538 272.613 731.964 273.472C732.397 274.325 732.997 274.974 733.764 275.422C734.531 275.862 735.423 276.082 736.438 276.082C737.099 276.082 737.695 275.99 738.228 275.805C738.768 275.614 739.233 275.33 739.624 274.953C740.014 274.57 740.316 274.094 740.529 273.526L742.958 274.207C742.703 275.031 742.273 275.756 741.669 276.381C741.065 276.999 740.32 277.482 739.432 277.83C738.544 278.17 737.546 278.341 736.438 278.341ZM749.254 256.182V258.099C749.254 258.682 749.148 259.303 748.935 259.964C748.729 260.617 748.423 261.253 748.019 261.871C747.621 262.482 747.138 263.014 746.57 263.469L745.206 262.361C745.653 261.722 746.041 261.058 746.367 260.369C746.701 259.673 746.868 258.93 746.868 258.142V256.182H749.254ZM756.88 278.341C755.516 278.341 754.312 277.996 753.268 277.308C752.224 276.612 751.407 275.631 750.818 274.367C750.228 273.096 749.934 271.594 749.934 269.861C749.934 268.142 750.228 266.651 750.818 265.386C751.407 264.122 752.228 263.146 753.279 262.457C754.33 261.768 755.544 261.423 756.922 261.423C757.987 261.423 758.829 261.601 759.447 261.956C760.072 262.304 760.548 262.702 760.875 263.149C761.208 263.589 761.468 263.952 761.652 264.236H761.865V256.182H764.38V278H761.951V275.486H761.652C761.468 275.784 761.205 276.161 760.864 276.615C760.523 277.062 760.036 277.464 759.404 277.819C758.772 278.167 757.931 278.341 756.88 278.341ZM757.22 276.082C758.229 276.082 759.081 275.82 759.777 275.294C760.473 274.761 761.002 274.026 761.365 273.089C761.727 272.144 761.908 271.054 761.908 269.818C761.908 268.597 761.73 267.528 761.375 266.612C761.02 265.688 760.495 264.971 759.799 264.46C759.103 263.941 758.243 263.682 757.22 263.682C756.155 263.682 755.267 263.955 754.557 264.502C753.854 265.042 753.325 265.777 752.97 266.707C752.622 267.631 752.448 268.668 752.448 269.818C752.448 270.983 752.625 272.041 752.98 272.993C753.343 273.937 753.875 274.69 754.578 275.251C755.289 275.805 756.169 276.082 757.22 276.082ZM780.285 256.182V278H777.771V256.182H780.285ZM791.538 278.341C790.06 278.341 788.764 277.989 787.649 277.286C786.541 276.583 785.675 275.599 785.05 274.335C784.432 273.071 784.123 271.594 784.123 269.903C784.123 268.199 784.432 266.711 785.05 265.44C785.675 264.168 786.541 263.181 787.649 262.478C788.764 261.775 790.06 261.423 791.538 261.423C793.015 261.423 794.308 261.775 795.416 262.478C796.531 263.181 797.397 264.168 798.015 265.44C798.64 266.711 798.953 268.199 798.953 269.903C798.953 271.594 798.64 273.071 798.015 274.335C797.397 275.599 796.531 276.583 795.416 277.286C794.308 277.989 793.015 278.341 791.538 278.341ZM791.538 276.082C792.66 276.082 793.583 275.795 794.308 275.219C795.032 274.644 795.568 273.888 795.916 272.95C796.264 272.013 796.438 270.997 796.438 269.903C796.438 268.81 796.264 267.79 795.916 266.846C795.568 265.901 795.032 265.138 794.308 264.555C793.583 263.973 792.66 263.682 791.538 263.682C790.416 263.682 789.492 263.973 788.768 264.555C788.043 265.138 787.507 265.901 787.159 266.846C786.811 267.79 786.637 268.81 786.637 269.903C786.637 270.997 786.811 272.013 787.159 272.95C787.507 273.888 788.043 274.644 788.768 275.219C789.492 275.795 790.416 276.082 791.538 276.082ZM815.585 261.636L809.534 278H806.977L800.926 261.636H803.653L808.17 274.676H808.341L812.858 261.636H815.585ZM825.179 278.341C823.602 278.341 822.242 277.993 821.098 277.297C819.962 276.594 819.085 275.614 818.467 274.357C817.856 273.092 817.551 271.622 817.551 269.946C817.551 268.27 817.856 266.793 818.467 265.514C819.085 264.229 819.944 263.227 821.045 262.51C822.153 261.786 823.446 261.423 824.923 261.423C825.775 261.423 826.617 261.565 827.448 261.849C828.279 262.134 829.035 262.595 829.717 263.234C830.399 263.866 830.942 264.705 831.347 265.749C831.752 266.793 831.954 268.078 831.954 269.605V270.67H819.34V268.497H829.397C829.397 267.574 829.213 266.75 828.843 266.026C828.481 265.301 827.963 264.729 827.288 264.31C826.62 263.891 825.832 263.682 824.923 263.682C823.921 263.682 823.055 263.93 822.323 264.428C821.599 264.918 821.041 265.557 820.651 266.345C820.26 267.134 820.065 267.979 820.065 268.881V270.33C820.065 271.565 820.278 272.613 820.704 273.472C821.137 274.325 821.737 274.974 822.505 275.422C823.272 275.862 824.163 276.082 825.179 276.082C825.839 276.082 826.436 275.99 826.968 275.805C827.508 275.614 827.973 275.33 828.364 274.953C828.755 274.57 829.056 274.094 829.269 273.526L831.698 274.207C831.443 275.031 831.013 275.756 830.409 276.381C829.806 276.999 829.06 277.482 828.172 277.83C827.284 278.17 826.286 278.341 825.179 278.341ZM851.333 261.636V263.767H842.853V261.636H851.333ZM845.324 257.716H847.838V273.312C847.838 274.023 847.941 274.555 848.147 274.911C848.36 275.259 848.63 275.493 848.957 275.614C849.291 275.727 849.642 275.784 850.012 275.784C850.289 275.784 850.516 275.77 850.693 275.741C850.871 275.706 851.013 275.678 851.12 275.656L851.631 277.915C851.46 277.979 851.223 278.043 850.917 278.107C850.612 278.178 850.225 278.213 849.756 278.213C849.046 278.213 848.35 278.06 847.668 277.755C846.993 277.45 846.432 276.984 845.985 276.359C845.544 275.734 845.324 274.946 845.324 273.994V257.716ZM861.587 278.341C860.109 278.341 858.813 277.989 857.698 277.286C856.59 276.583 855.724 275.599 855.099 274.335C854.481 273.071 854.172 271.594 854.172 269.903C854.172 268.199 854.481 266.711 855.099 265.44C855.724 264.168 856.59 263.181 857.698 262.478C858.813 261.775 860.109 261.423 861.587 261.423C863.064 261.423 864.356 261.775 865.464 262.478C866.579 263.181 867.446 264.168 868.064 265.44C868.689 266.711 869.001 268.199 869.001 269.903C869.001 271.594 868.689 273.071 868.064 274.335C867.446 275.599 866.579 276.583 865.464 277.286C864.356 277.989 863.064 278.341 861.587 278.341ZM861.587 276.082C862.709 276.082 863.632 275.795 864.356 275.219C865.081 274.644 865.617 273.888 865.965 272.95C866.313 272.013 866.487 270.997 866.487 269.903C866.487 268.81 866.313 267.79 865.965 266.846C865.617 265.901 865.081 265.138 864.356 264.555C863.632 263.973 862.709 263.682 861.587 263.682C860.464 263.682 859.541 263.973 858.817 264.555C858.092 265.138 857.556 265.901 857.208 266.846C856.86 267.79 856.686 268.81 856.686 269.903C856.686 270.997 856.86 272.013 857.208 272.95C857.556 273.888 858.092 274.644 858.817 275.219C859.541 275.795 860.464 276.082 861.587 276.082ZM883.791 268.156V278H881.277V256.182H883.791V264.193H884.004C884.388 263.348 884.963 262.677 885.73 262.18C886.504 261.675 887.534 261.423 888.819 261.423C889.934 261.423 890.911 261.647 891.749 262.094C892.587 262.535 893.237 263.213 893.699 264.129C894.167 265.038 894.402 266.196 894.402 267.602V278H891.888V267.773C891.888 266.473 891.55 265.468 890.875 264.758C890.208 264.04 889.281 263.682 888.095 263.682C887.271 263.682 886.532 263.856 885.879 264.204C885.233 264.552 884.721 265.06 884.345 265.727C883.976 266.395 883.791 267.205 883.791 268.156ZM905.862 278.341C904.285 278.341 902.925 277.993 901.782 277.297C900.646 276.594 899.768 275.614 899.15 274.357C898.54 273.092 898.234 271.622 898.234 269.946C898.234 268.27 898.54 266.793 899.15 265.514C899.768 264.229 900.628 263.227 901.729 262.51C902.837 261.786 904.129 261.423 905.606 261.423C906.459 261.423 907.3 261.565 908.131 261.849C908.962 262.134 909.719 262.595 910.4 263.234C911.082 263.866 911.626 264.705 912.03 265.749C912.435 266.793 912.638 268.078 912.638 269.605V270.67H900.024V268.497H910.081C910.081 267.574 909.896 266.75 909.527 266.026C909.165 265.301 908.646 264.729 907.972 264.31C907.304 263.891 906.516 263.682 905.606 263.682C904.605 263.682 903.739 263.93 903.007 264.428C902.283 264.918 901.725 265.557 901.334 266.345C900.944 267.134 900.748 267.979 900.748 268.881V270.33C900.748 271.565 900.962 272.613 901.388 273.472C901.821 274.325 902.421 274.974 903.188 275.422C903.955 275.862 904.847 276.082 905.862 276.082C906.523 276.082 907.119 275.99 907.652 275.805C908.192 275.614 908.657 275.33 909.047 274.953C909.438 274.57 909.74 274.094 909.953 273.526L912.382 274.207C912.126 275.031 911.697 275.756 911.093 276.381C910.489 276.999 909.744 277.482 908.856 277.83C907.968 278.17 906.97 278.341 905.862 278.341ZM921.278 278.384C920.241 278.384 919.3 278.188 918.454 277.798C917.609 277.4 916.938 276.828 916.441 276.082C915.944 275.33 915.695 274.42 915.695 273.355C915.695 272.418 915.88 271.658 916.249 271.075C916.619 270.486 917.112 270.024 917.73 269.69C918.348 269.357 919.03 269.108 919.775 268.945C920.528 268.774 921.285 268.639 922.045 268.54C923.039 268.412 923.845 268.316 924.463 268.252C925.088 268.181 925.543 268.064 925.827 267.901C926.118 267.737 926.263 267.453 926.263 267.048V266.963C926.263 265.912 925.976 265.095 925.4 264.513C924.832 263.93 923.969 263.639 922.812 263.639C921.611 263.639 920.67 263.902 919.989 264.428C919.307 264.953 918.827 265.514 918.55 266.111L916.164 265.259C916.59 264.264 917.158 263.49 917.869 262.936C918.586 262.375 919.367 261.984 920.212 261.764C921.065 261.537 921.903 261.423 922.726 261.423C923.252 261.423 923.856 261.487 924.538 261.615C925.226 261.736 925.891 261.988 926.53 262.371C927.176 262.755 927.712 263.334 928.138 264.108C928.565 264.882 928.778 265.919 928.778 267.219V278H926.263V275.784H926.136C925.965 276.139 925.681 276.519 925.283 276.924C924.886 277.329 924.356 277.673 923.696 277.957C923.035 278.241 922.229 278.384 921.278 278.384ZM921.661 276.125C922.655 276.125 923.494 275.93 924.175 275.539C924.864 275.148 925.383 274.644 925.731 274.026C926.086 273.408 926.263 272.759 926.263 272.077V269.776C926.157 269.903 925.922 270.021 925.56 270.127C925.205 270.227 924.793 270.315 924.324 270.393C923.863 270.464 923.412 270.528 922.972 270.585C922.538 270.635 922.187 270.678 921.917 270.713C921.263 270.798 920.653 270.937 920.084 271.129C919.523 271.313 919.069 271.594 918.721 271.97C918.38 272.339 918.209 272.844 918.209 273.483C918.209 274.357 918.533 275.017 919.179 275.464C919.832 275.905 920.66 276.125 921.661 276.125ZM933.367 278V261.636H935.796V264.108H935.966C936.264 263.298 936.804 262.641 937.585 262.137C938.367 261.633 939.247 261.381 940.227 261.381C940.412 261.381 940.643 261.384 940.92 261.391C941.197 261.398 941.406 261.409 941.548 261.423V263.98C941.463 263.959 941.268 263.927 940.962 263.884C940.664 263.835 940.348 263.81 940.014 263.81C939.219 263.81 938.509 263.977 937.884 264.31C937.266 264.637 936.776 265.092 936.413 265.674C936.058 266.249 935.881 266.906 935.881 267.645V278H933.367ZM960.253 261.636V263.767H951.432V261.636H960.253ZM954.074 278V259.378C954.074 258.44 954.294 257.659 954.735 257.034C955.175 256.409 955.747 255.94 956.45 255.628C957.153 255.315 957.895 255.159 958.676 255.159C959.294 255.159 959.799 255.209 960.189 255.308C960.58 255.408 960.871 255.5 961.063 255.585L960.338 257.759C960.21 257.716 960.033 257.663 959.806 257.599C959.585 257.535 959.294 257.503 958.932 257.503C958.101 257.503 957.501 257.712 957.132 258.131C956.769 258.55 956.588 259.165 956.588 259.974V278H954.074ZM963.777 278V261.636H966.206V264.108H966.376C966.674 263.298 967.214 262.641 967.995 262.137C968.777 261.633 969.657 261.381 970.638 261.381C970.822 261.381 971.053 261.384 971.33 261.391C971.607 261.398 971.816 261.409 971.959 261.423V263.98C971.873 263.959 971.678 263.927 971.373 263.884C971.074 263.835 970.758 263.81 970.424 263.81C969.629 263.81 968.919 263.977 968.294 264.31C967.676 264.637 967.186 265.092 966.824 265.674C966.468 266.249 966.291 266.906 966.291 267.645V278H963.777ZM981.089 278.341C979.611 278.341 978.315 277.989 977.2 277.286C976.092 276.583 975.226 275.599 974.601 274.335C973.983 273.071 973.674 271.594 973.674 269.903C973.674 268.199 973.983 266.711 974.601 265.44C975.226 264.168 976.092 263.181 977.2 262.478C978.315 261.775 979.611 261.423 981.089 261.423C982.566 261.423 983.858 261.775 984.966 262.478C986.081 263.181 986.948 264.168 987.566 265.44C988.191 266.711 988.503 268.199 988.503 269.903C988.503 271.594 988.191 273.071 987.566 274.335C986.948 275.599 986.081 276.583 984.966 277.286C983.858 277.989 982.566 278.341 981.089 278.341ZM981.089 276.082C982.211 276.082 983.134 275.795 983.858 275.219C984.583 274.644 985.119 273.888 985.467 272.95C985.815 272.013 985.989 270.997 985.989 269.903C985.989 268.81 985.815 267.79 985.467 266.846C985.119 265.901 984.583 265.138 983.858 264.555C983.134 263.973 982.211 263.682 981.089 263.682C979.966 263.682 979.043 263.973 978.319 264.555C977.594 265.138 977.058 265.901 976.71 266.846C976.362 267.79 976.188 268.81 976.188 269.903C976.188 270.997 976.362 272.013 976.71 272.95C977.058 273.888 977.594 274.644 978.319 275.219C979.043 275.795 979.966 276.082 981.089 276.082ZM992.341 278V261.636H994.77V264.193H994.983C995.324 263.32 995.875 262.641 996.634 262.158C997.394 261.668 998.307 261.423 999.372 261.423C1000.45 261.423 1001.35 261.668 1002.07 262.158C1002.79 262.641 1003.36 263.32 1003.76 264.193H1003.93C1004.35 263.348 1004.98 262.677 1005.82 262.18C1006.66 261.675 1007.66 261.423 1008.83 261.423C1010.3 261.423 1011.49 261.881 1012.42 262.798C1013.35 263.707 1013.82 265.124 1013.82 267.048V278H1011.3V267.048C1011.3 265.841 1010.97 264.978 1010.31 264.46C1009.65 263.941 1008.88 263.682 1007.98 263.682C1006.83 263.682 1005.94 264.03 1005.31 264.726C1004.67 265.415 1004.36 266.288 1004.36 267.347V278H1001.8V266.793C1001.8 265.862 1001.5 265.113 1000.9 264.545C1000.29 263.969 999.514 263.682 998.563 263.682C997.909 263.682 997.299 263.856 996.73 264.204C996.169 264.552 995.715 265.035 995.367 265.653C995.026 266.263 994.855 266.97 994.855 267.773V278H992.341ZM1028.47 284.136C1028.05 284.136 1027.67 284.101 1027.33 284.03C1027 283.966 1026.77 283.902 1026.64 283.838L1027.28 281.622C1027.89 281.778 1028.43 281.835 1028.9 281.793C1029.37 281.75 1029.78 281.54 1030.14 281.164C1030.51 280.795 1030.85 280.195 1031.16 279.364L1031.63 278.085L1025.57 261.636H1028.3L1032.82 274.676H1032.99L1037.51 261.636H1040.23L1033.29 280.386C1032.98 281.232 1032.59 281.931 1032.13 282.485C1031.66 283.046 1031.13 283.462 1030.52 283.732C1029.91 284.001 1029.23 284.136 1028.47 284.136ZM1049.61 278.341C1048.14 278.341 1046.84 277.989 1045.73 277.286C1044.62 276.583 1043.75 275.599 1043.13 274.335C1042.51 273.071 1042.2 271.594 1042.2 269.903C1042.2 268.199 1042.51 266.711 1043.13 265.44C1043.75 264.168 1044.62 263.181 1045.73 262.478C1046.84 261.775 1048.14 261.423 1049.61 261.423C1051.09 261.423 1052.38 261.775 1053.49 262.478C1054.61 263.181 1055.47 264.168 1056.09 265.44C1056.72 266.711 1057.03 268.199 1057.03 269.903C1057.03 271.594 1056.72 273.071 1056.09 274.335C1055.47 275.599 1054.61 276.583 1053.49 277.286C1052.38 277.989 1051.09 278.341 1049.61 278.341ZM1049.61 276.082C1050.74 276.082 1051.66 275.795 1052.38 275.219C1053.11 274.644 1053.64 273.888 1053.99 272.95C1054.34 272.013 1054.51 270.997 1054.51 269.903C1054.51 268.81 1054.34 267.79 1053.99 266.846C1053.64 265.901 1053.11 265.138 1052.38 264.555C1051.66 263.973 1050.74 263.682 1049.61 263.682C1048.49 263.682 1047.57 263.973 1046.84 264.555C1046.12 265.138 1045.58 265.901 1045.24 266.846C1044.89 267.79 1044.71 268.81 1044.71 269.903C1044.71 270.997 1044.89 272.013 1045.24 272.95C1045.58 273.888 1046.12 274.644 1046.84 275.219C1047.57 275.795 1048.49 276.082 1049.61 276.082ZM1071.18 271.31V261.636H1073.69V278H1071.18V275.23H1071.01C1070.63 276.061 1070.03 276.768 1069.22 277.35C1068.41 277.925 1067.39 278.213 1066.15 278.213C1065.13 278.213 1064.22 277.989 1063.42 277.542C1062.63 277.087 1062 276.406 1061.55 275.496C1061.09 274.58 1060.87 273.426 1060.87 272.034V261.636H1063.38V271.864C1063.38 273.057 1063.71 274.009 1064.38 274.719C1065.06 275.429 1065.92 275.784 1066.96 275.784C1067.59 275.784 1068.22 275.624 1068.87 275.305C1069.52 274.985 1070.07 274.495 1070.51 273.835C1070.96 273.174 1071.18 272.332 1071.18 271.31Z" fill="white"/>
<rect x="83" y="213" width="40" height="10" fill="#FFFF00"/>
<rect x="989" y="64" width="40" height="10" fill="#FFFF00"/>
<rect x="1131" y="312" width="40" height="10" fill="#FFFF00"/>
<rect y="64" width="40" height="10" fill="#FFFF00"/>
<rect x="684" y="350" width="40" height="10" fill="#FFFF00"/>
<rect x="166" y="69" width="40" height="10" fill="#FF0E0E"/>
<rect x="1240" y="152" width="40" height="10" fill="#FF0E0E"/>
<rect x="1151" y="50" width="40" height="10" fill="#FF5800"/>
<rect x="52" y="147" width="40" height="10" fill="#32CD32"/>
<rect x="295" y="317" width="40" height="10" fill="#32CD32"/>
<rect x="466" y="1" width="40" height="10" fill="#32CD32"/>
<rect x="847" y="317" width="40" height="10" fill="#32CD32"/>
<rect x="1042" y="176" width="40" height="10" fill="#32CD32"/>
<rect x="239" y="176" width="40" height="10" fill="#FF5800"/>
</svg>
